<svg xmlns="http://www.w3.org/2000/svg" version="1.1" xmlns:xlink="http://www.w3.org/1999/xlink" xmlns:svgjs="http://svgjs.dev/svgjs" width="300" height="300" viewBox="0 0 2000 1247"><g transform="matrix(1,0,0,1,-1.2121212121212466,0.504858299595071)"><svg viewBox="0 0 396 247" data-background-color="#ffffff" preserveAspectRatio="xMidYMid meet" height="1247" width="2000" xmlns="http://www.w3.org/2000/svg" xmlns:xlink="http://www.w3.org/1999/xlink"><g id="tight-bounds" transform="matrix(1,0,0,1,0.2400000000000091,-0.09999999999999432)"><svg viewBox="0 0 395.52 247.2" height="247.2" width="395.52"><g><svg></svg></g><g><svg viewBox="0 0 395.52 247.2" height="247.2" width="395.52"><mask id="1a4cfc13-6521-4ca8-9f54-97d51d3f6d1b"><rect width="640" height="400" fill="white"></rect><g transform="matrix(1,0,0,1,136.08522796352585,54.93333333333334)"><svg viewBox="0 0 123.34954407294828 137.33333333333331" height="137.33333333333331" width="123.34954407294828"><g><svg viewBox="0 0 123.34954407294828 137.33333333333331" height="137.33333333333331" width="123.34954407294828"><g><svg viewBox="0 0 123.34954407294828 137.33333333333331" height="137.33333333333331" width="123.34954407294828"><g><svg viewBox="0 0 123.34954407294828 137.33333333333331" height="137.33333333333331" width="123.34954407294828"><g id="SvgjsG3677"><svg viewBox="0 0 123.34954407294828 137.33333333333331" height="137.33333333333331" width="123.34954407294828" id="SvgjsSvg3676"><g><svg viewBox="0 0 123.34954407294828 137.33333333333331" height="137.33333333333331" width="123.34954407294828"><g transform="matrix(1,0,0,1,0,0)"><svg width="123.34954407294828" viewBox="-3.2 -29.45 30.55 33.900000000000006" height="137.33333333333331" data-palette-color="#50a060"><path d="M10 0.45L10 0.45Q6.9 0.45 4.85-0.4 2.8-1.25 1.8-2.58 0.8-3.9 0.8-5.25L0.8-5.25Q0.8-7.15 2.5-8.63 4.2-10.1 7.1-10.1L7.1-10.1Q7.1-7.55 7.75-6.03 8.4-4.5 9.43-3.85 10.45-3.2 11.4-3.2L11.4-3.2Q12.55-3.2 13.33-3.88 14.1-4.55 14.1-5.55L14.1-5.55Q14.1-6.95 12.65-8 11.2-9.05 8.9-10.35L8.9-10.35Q7.75-11.05 6.4-11.98 5.05-12.9 4.1-14.23 3.15-15.55 3.15-17.4L3.15-17.4Q3.15-19.35 4.28-20.85 5.4-22.35 7.25-23.38 9.1-24.4 11.25-24.93 13.4-25.45 15.45-25.45L15.45-25.45Q19.3-25.45 21.25-23.9 23.2-22.35 23.2-20.6L23.2-20.6Q23.2-19.1 21.7-17.9 20.2-16.7 17.1-16.7L17.1-16.7Q17.15-19.25 16.05-20.43 14.95-21.6 13.7-21.6L13.7-21.6Q12.8-21.6 12.2-21.05 11.6-20.5 11.6-19.45L11.6-19.45Q11.6-18.25 12.38-17.38 13.15-16.5 14.33-15.83 15.5-15.15 16.75-14.55L16.75-14.55Q18.45-13.75 19.95-12.85 21.45-11.95 22.4-10.8 23.35-9.65 23.35-8L23.35-8Q23.35-5.75 21.53-3.83 19.7-1.9 16.65-0.73 13.6 0.45 10 0.45Z" opacity="1" transform="matrix(1,0,0,1,0,0)" fill="black" class="wordmark-text-0" id="SvgjsPath3675" stroke-width="7" stroke="black" stroke-linejoin="round"></path></svg></g></svg></g></svg></g></svg></g><g></g></svg></g></svg></g></svg></g></mask><g transform="matrix(1,0,0,1,136.08522796352585,54.93333333333334)"><svg viewBox="0 0 123.34954407294828 137.33333333333331" height="137.33333333333331" width="123.34954407294828"><g><svg viewBox="0 0 123.34954407294828 137.33333333333331" height="137.33333333333331" width="123.34954407294828"><g><svg viewBox="0 0 123.34954407294828 137.33333333333331" height="137.33333333333331" width="123.34954407294828"><g><svg viewBox="0 0 123.34954407294828 137.33333333333331" height="137.33333333333331" width="123.34954407294828"><g id="textblocktransform"><svg viewBox="0 0 123.34954407294828 137.33333333333331" height="137.33333333333331" width="123.34954407294828" id="textblock"><g><svg viewBox="0 0 123.34954407294828 137.33333333333331" height="137.33333333333331" width="123.34954407294828"><g transform="matrix(1,0,0,1,0,0)"><svg width="123.34954407294828" viewBox="-3.2 -29.45 30.55 33.900000000000006" height="137.33333333333331" data-palette-color="#50a060"><path d="M10 0.45L10 0.45Q6.9 0.45 4.85-0.4 2.8-1.25 1.8-2.58 0.8-3.9 0.8-5.25L0.8-5.25Q0.8-7.15 2.5-8.63 4.2-10.1 7.1-10.1L7.1-10.1Q7.1-7.55 7.75-6.03 8.4-4.5 9.43-3.85 10.45-3.2 11.4-3.2L11.4-3.2Q12.55-3.2 13.33-3.88 14.1-4.55 14.1-5.55L14.1-5.55Q14.1-6.95 12.65-8 11.2-9.05 8.9-10.35L8.9-10.35Q7.75-11.05 6.4-11.98 5.05-12.9 4.1-14.23 3.15-15.55 3.15-17.4L3.15-17.4Q3.15-19.35 4.28-20.85 5.4-22.35 7.25-23.38 9.1-24.4 11.25-24.93 13.4-25.45 15.45-25.45L15.45-25.45Q19.3-25.45 21.25-23.9 23.2-22.35 23.2-20.6L23.2-20.6Q23.2-19.1 21.7-17.9 20.2-16.7 17.1-16.7L17.1-16.7Q17.15-19.25 16.05-20.43 14.95-21.6 13.7-21.6L13.7-21.6Q12.8-21.6 12.2-21.05 11.6-20.5 11.6-19.45L11.6-19.45Q11.6-18.25 12.38-17.38 13.15-16.5 14.33-15.83 15.5-15.15 16.75-14.55L16.75-14.55Q18.45-13.75 19.95-12.85 21.45-11.95 22.4-10.8 23.35-9.65 23.35-8L23.35-8Q23.35-5.75 21.53-3.83 19.7-1.9 16.65-0.73 13.6 0.45 10 0.45Z" opacity="1" transform="matrix(1,0,0,1,0,0)" fill="#50a060" class="wordmark-text-0" data-fill-palette-color="primary" id="text-0"></path></svg></g></svg></g></svg></g></svg></g><g></g></svg></g></svg></g></svg></g><g mask="url(#1a4cfc13-6521-4ca8-9f54-97d51d3f6d1b)"><g transform="matrix(3.29184362488682, 0, 0, 3.29184362488682, 68.53412589110181, 1)"><svg xmlns="http://www.w3.org/2000/svg" xml:space="preserve" viewBox="11.285456696050899 11.680694027388922 78.51276599649609 74.48713485241281" x="0" y="0" height="74.48713485241281" width="78.51276599649609" class="icon-none" data-fill-palette-color="accent" id="none"><path d="M44.125 47.515c0.444 0.513 0.848 0.986 1.222 1.402-0.568 0.667-1.222 1.431-1.916 2.265-1.944 2.278-4.654 5.488-7.627 8.628-4.96 5.236-10.629 10.281-14.588 10.558-4.154 0.209-6.558-1.75-7.836-3.431-2.015-2.654-2.639-6.446-1.597-9.628 1.098-3.293 7.071-7.947 7.071-7.947s-5.974-4.667-7.071-7.946c-1.042-3.195-0.418-6.96 1.597-9.628 1.278-1.694 3.682-3.653 7.808-3.446 3.724 0.265 8.837 4.377 13.546 9.004 3.666 3.596 7.084 7.5 9.391 10.169M67.827 13.782c1.694 1.278 3.653 3.681 3.444 7.793-0.249 3.516-3.932 8.28-8.225 12.769-3.82 3.959-8.113 7.71-10.947 10.184-0.515 0.43-0.986 0.848-1.403 1.222-0.667-0.569-1.431-1.222-2.264-1.917-2.848-2.417-7.143-6.042-10.947-9.878-4.308-4.362-8.004-8.961-8.24-12.337-0.207-4.154 1.752-6.557 3.433-7.835 2.652-2.015 6.446-2.654 9.628-1.599 3.293 1.084 7.946 7.058 7.946 7.058s4.668-5.974 7.946-7.058c3.197-1.056 6.961-0.416 9.629 1.598M87.693 30.772c2.028 2.667 2.654 6.447 1.599 9.629-1.084 3.293-7.058 7.946-7.058 7.946s5.974 4.669 7.058 7.946c1.056 3.195 0.43 6.975-1.599 9.629-1.278 1.694-3.682 3.653-7.794 3.444-3.723-0.265-8.851-4.377-13.56-9.002-3.667-3.599-7.071-7.516-9.392-10.17-0.431-0.5-0.848-0.973-1.222-1.402 0.569-0.668 1.222-1.418 1.931-2.251 2.168-2.557 5.32-6.294 8.711-9.781 4.681-4.807 9.821-9.155 13.49-9.42 4.155-0.207 6.558 1.752 7.836 3.432M71.981 76.231c0.207 4.152-1.752 6.557-3.433 7.835-2.667 2.015-6.446 2.653-9.628 1.599-3.292-1.085-7.946-7.073-7.946-7.073s-4.668 5.988-7.947 7.073c-3.195 1.055-6.96 0.416-9.628-1.599-1.694-1.278-3.653-3.683-3.444-7.808 0.25-3.516 3.931-8.267 8.225-12.754 3.806-3.96 8.1-7.696 10.947-10.184 0.499-0.432 0.973-0.848 1.403-1.223 0.666 0.57 1.431 1.223 2.264 1.917 2.821 2.39 7.071 5.987 10.852 9.781 4.348 4.393 8.098 9.046 8.335 12.436" fill="#50a060" data-fill-palette-color="accent"></path></svg></g></g></svg></g><defs></defs></svg><rect width="395.52" height="247.2" fill="none" stroke="none" visibility="hidden"></rect></g></svg></g></svg>